<svg xmlns="http://www.w3.org/2000/svg" width="614.121" height="128" viewBox="0 0 614.121 128">
  <g id="logo-detran" transform="translate(-960.001 -657)">
    <g id="Group_1" data-name="Group 1" transform="translate(1108.184 695.957)">
      <path id="Path_146" data-name="Path 146" d="M1156.243,782.787c16.691,0,25.757-11.054,25.757-27.414s-9.066-27.414-25.757-27.414h-13.154v54.829ZM1130.6,716.129h26.087c22.331,0,38.248,16.029,38.248,39.244s-15.917,39.243-38.248,39.243H1130.6Z" transform="translate(-1130.598 -715.024)"/>
      <path id="Path_147" data-name="Path 147" d="M1247.724,762.073c-.663-9.949-8.622-15.033-16.8-15.033-8.07,0-15.809,4.863-17.576,15.033ZM1201.96,766.5c0-19.344,14.26-29.846,28.852-29.846s30.51,10.391,27.746,34.49h-45.1c1.88,9.949,9.728,15.034,19.567,15.034a22.59,22.59,0,0,0,15.917-5.971l5.749,5.971c-4.974,6.19-13.265,10.169-22.992,10.169-15.587,0-29.736-10.723-29.736-29.847" transform="translate(-1132.76 -715.646)"/>
      <path id="Path_148" data-name="Path 148" d="M1271.479,780.883V747.168h-7.96v-9.839h7.96v-14.7h12.269v14.7h11.608v9.839h-11.608v31.5c0,3.318,1.768,5.86,6.3,5.86a15.594,15.594,0,0,0,5.307-1v9.618c-2.1,1.768-5.86,2.321-8.955,2.321-8.733,0-14.922-4.31-14.922-14.592" transform="translate(-1134.625 -715.221)"/>
      <path id="Path_149" data-name="Path 149" d="M1304.329,737.754h12.16v14.813c1.99-8.623,7.738-15.918,18.239-15.918a13.212,13.212,0,0,1,3.649.442V748.7a18.291,18.291,0,0,0-3.539-.332c-10.945,0-18.35,7.958-18.35,20.008v26.862h-12.16Z" transform="translate(-1135.862 -715.646)"/>
      <path id="Path_150" data-name="Path 150" d="M1372.355,785.288c9.285,0,18.239-6.412,18.239-18.793s-8.954-18.792-18.239-18.792c-9.175,0-18.13,6.412-18.13,18.792s8.954,18.793,18.13,18.793M1342.176,766.5c0-19.787,14.26-29.846,27.856-29.846,10.5,0,17.8,5.748,19.9,10.281h.332v-9.175h12.16v57.482h-12.16v-9.176h-.332c-2.1,4.533-9.4,10.281-19.9,10.281-13.6,0-27.856-10.06-27.856-29.847" transform="translate(-1137.008 -715.646)"/>
      <path id="Path_151" data-name="Path 151" d="M1414.564,737.754h12.16v8.623c3.1-5.306,9.176-9.728,18.461-9.728,11.828,0,22,7.406,22,24.762v33.825h-12.271V763.4c0-10.06-5.527-15.7-14.04-15.7-8.29,0-14.149,5.637-14.149,15.7v31.836h-12.16Z" transform="translate(-1139.201 -715.646)"/>
      <path id="Path_152" data-name="Path 152" d="M1476.808,790.576a7.13,7.13,0,0,1,14.259,0,7.13,7.13,0,1,1-14.259,0" transform="translate(-1141.088 -717.066)"/>
      <path id="Path_153" data-name="Path 153" d="M1497.553,776.672l5.749-2.542c2.21,9.065,9.948,15.035,20.008,15.035,9.4,0,17.245-5.2,17.245-15.035,0-9.286-6.744-13.265-16.471-17.133l-5.308-2.1c-11.828-4.643-17.907-11.276-17.907-20.672,0-11.606,9.4-19.233,21.666-19.233,12.713,0,20.12,7.738,22.995,16.248l-5.417,2.654c-2.984-7.516-8.512-12.49-17.356-12.49-8.511,0-15.034,4.863-15.034,12.821,0,6.3,3.76,11.166,13.487,14.925l5.306,2.1c12.381,4.974,21.115,10.5,21.115,22.883,0,13.928-11.276,21.556-24.32,21.556-13.154,0-23.214-7.737-25.756-19.014" transform="translate(-1141.716 -714.99)"/>
      <path id="Path_154" data-name="Path 154" d="M1582.415,759.795c12.381,0,20.009-6.744,20.009-18.683s-7.628-18.46-20.009-18.46h-17.134v37.144Zm-23.988-43.666h24.541c16.8,0,26.531,10.724,26.531,24.983,0,14.592-9.728,25.2-26.531,25.2h-17.687v28.3h-6.854Z" transform="translate(-1143.56 -715.024)"/>
    </g>
    <path id="Path_155" data-name="Path 155" d="M1066.175,721a64.041,64.041,0,0,1-53.092,63.077,64.564,64.564,0,0,1-10.908.923H960V657h42.175a64,64,0,0,1,64,64" transform="translate(0 0)" fill="#0058af"/>
    <path id="Path_156" data-name="Path 156" d="M1013.084,731.327l-.253.118L960,756.221V706.668Z" transform="translate(0 -10.345)" fill="#3291d1"/>
    <path id="Path_157" data-name="Path 157" d="M1013.084,737.962v62.977a64.59,64.59,0,0,1-10.908.923H960V762.738l52.83-24.776Z" transform="translate(0 -16.862)" fill="#014076"/>
  </g>
</svg>
